<mxfile host="www.draw.io" modified="2019-11-11T02:48:02.884Z" agent="Mozilla/5.0 (Windows NT 10.0; Win64; x64) AppleWebKit/537.36 (KHTML, like Gecko) Chrome/78.0.3904.87 Safari/537.36" etag="09EtntujsnzAL03iKEX6" version="12.2.3" type="github" pages="4">
  <diagram id="HC9ZhW5JZOfwEJAA2x0V" name="Page-3">
    <mxGraphModel dx="1656" dy="918" grid="1" gridSize="10" guides="1" tooltips="1" connect="1" arrows="1" fold="1" page="1" pageScale="1" pageWidth="827" pageHeight="1169" math="0" shadow="0">
      <root>
        <mxCell id="saO0hsbp9Sgod1jM02oN-0"/>
        <mxCell id="saO0hsbp9Sgod1jM02oN-1" parent="saO0hsbp9Sgod1jM02oN-0"/>
        <mxCell id="yYwOIRpesgABRN1WHnr8-29" style="edgeStyle=orthogonalEdgeStyle;rounded=0;orthogonalLoop=1;jettySize=auto;html=1;exitX=0.5;exitY=1;exitDx=0;exitDy=0;entryX=0.5;entryY=0;entryDx=0;entryDy=0;" parent="saO0hsbp9Sgod1jM02oN-1" source="yYwOIRpesgABRN1WHnr8-3" target="yYwOIRpesgABRN1WHnr8-28" edge="1">
          <mxGeometry relative="1" as="geometry"/>
        </mxCell>
        <mxCell id="yYwOIRpesgABRN1WHnr8-35" style="edgeStyle=orthogonalEdgeStyle;rounded=0;orthogonalLoop=1;jettySize=auto;html=1;exitX=0.5;exitY=0;exitDx=0;exitDy=0;entryX=0.5;entryY=1;entryDx=0;entryDy=0;" parent="saO0hsbp9Sgod1jM02oN-1" source="yYwOIRpesgABRN1WHnr8-3" target="yYwOIRpesgABRN1WHnr8-34" edge="1">
          <mxGeometry relative="1" as="geometry"/>
        </mxCell>
        <mxCell id="yYwOIRpesgABRN1WHnr8-3" value="메인페이지" style="rounded=1;whiteSpace=wrap;html=1;fillColor=#dae8fc;strokeColor=#6c8ebf;" parent="saO0hsbp9Sgod1jM02oN-1" vertex="1">
          <mxGeometry x="40" y="510" width="120" height="60" as="geometry"/>
        </mxCell>
        <mxCell id="yYwOIRpesgABRN1WHnr8-4" style="edgeStyle=orthogonalEdgeStyle;rounded=0;orthogonalLoop=1;jettySize=auto;html=1;exitX=1;exitY=0.5;exitDx=0;exitDy=0;entryX=0;entryY=0.5;entryDx=0;entryDy=0;" parent="saO0hsbp9Sgod1jM02oN-1" source="yYwOIRpesgABRN1WHnr8-5" edge="1">
          <mxGeometry relative="1" as="geometry">
            <mxPoint x="640" y="760" as="targetPoint"/>
            <mxPoint x="433" y="760" as="sourcePoint"/>
          </mxGeometry>
        </mxCell>
        <mxCell id="kDaUi3rHdYQlr3wqwh5D-19" style="edgeStyle=orthogonalEdgeStyle;rounded=0;orthogonalLoop=1;jettySize=auto;html=1;exitX=1;exitY=0.5;exitDx=0;exitDy=0;entryX=0;entryY=0.5;entryDx=0;entryDy=0;opacity=50;" parent="saO0hsbp9Sgod1jM02oN-1" source="yYwOIRpesgABRN1WHnr8-5" edge="1">
          <mxGeometry relative="1" as="geometry">
            <mxPoint x="640" y="820" as="targetPoint"/>
            <Array as="points">
              <mxPoint x="570" y="760"/>
              <mxPoint x="570" y="820"/>
            </Array>
          </mxGeometry>
        </mxCell>
        <mxCell id="kDaUi3rHdYQlr3wqwh5D-20" style="edgeStyle=orthogonalEdgeStyle;rounded=0;orthogonalLoop=1;jettySize=auto;html=1;exitX=1;exitY=0.5;exitDx=0;exitDy=0;entryX=0;entryY=0.5;entryDx=0;entryDy=0;opacity=50;" parent="saO0hsbp9Sgod1jM02oN-1" source="yYwOIRpesgABRN1WHnr8-5" edge="1">
          <mxGeometry relative="1" as="geometry">
            <mxPoint x="640" y="880" as="targetPoint"/>
            <Array as="points">
              <mxPoint x="570" y="760"/>
              <mxPoint x="570" y="880"/>
            </Array>
          </mxGeometry>
        </mxCell>
        <mxCell id="kDaUi3rHdYQlr3wqwh5D-21" style="edgeStyle=orthogonalEdgeStyle;rounded=0;orthogonalLoop=1;jettySize=auto;html=1;exitX=1;exitY=0.5;exitDx=0;exitDy=0;entryX=0;entryY=0.5;entryDx=0;entryDy=0;opacity=50;" parent="saO0hsbp9Sgod1jM02oN-1" source="yYwOIRpesgABRN1WHnr8-5" edge="1">
          <mxGeometry relative="1" as="geometry">
            <mxPoint x="640" y="940" as="targetPoint"/>
            <Array as="points">
              <mxPoint x="570" y="760"/>
              <mxPoint x="570" y="940"/>
            </Array>
          </mxGeometry>
        </mxCell>
        <mxCell id="kDaUi3rHdYQlr3wqwh5D-22" style="edgeStyle=orthogonalEdgeStyle;rounded=0;orthogonalLoop=1;jettySize=auto;html=1;exitX=1;exitY=0.5;exitDx=0;exitDy=0;entryX=0;entryY=0.5;entryDx=0;entryDy=0;opacity=50;" parent="saO0hsbp9Sgod1jM02oN-1" source="yYwOIRpesgABRN1WHnr8-5" edge="1">
          <mxGeometry relative="1" as="geometry">
            <mxPoint x="640" y="1000" as="targetPoint"/>
            <Array as="points">
              <mxPoint x="570" y="760"/>
              <mxPoint x="570" y="1000"/>
            </Array>
          </mxGeometry>
        </mxCell>
        <mxCell id="yYwOIRpesgABRN1WHnr8-5" value="단어" style="rounded=1;whiteSpace=wrap;html=1;fillColor=#f5f5f5;strokeColor=#666666;fontColor=#333333;" parent="saO0hsbp9Sgod1jM02oN-1" vertex="1">
          <mxGeometry x="240" y="730" width="120" height="60" as="geometry"/>
        </mxCell>
        <mxCell id="kDaUi3rHdYQlr3wqwh5D-14" style="edgeStyle=orthogonalEdgeStyle;rounded=0;orthogonalLoop=1;jettySize=auto;html=1;exitX=1;exitY=0.5;exitDx=0;exitDy=0;entryX=0;entryY=0.5;entryDx=0;entryDy=0;opacity=50;" parent="saO0hsbp9Sgod1jM02oN-1" source="yYwOIRpesgABRN1WHnr8-6" target="yYwOIRpesgABRN1WHnr8-16" edge="1">
          <mxGeometry relative="1" as="geometry"/>
        </mxCell>
        <mxCell id="kDaUi3rHdYQlr3wqwh5D-15" style="edgeStyle=orthogonalEdgeStyle;rounded=0;orthogonalLoop=1;jettySize=auto;html=1;exitX=1;exitY=0.5;exitDx=0;exitDy=0;entryX=0;entryY=0.5;entryDx=0;entryDy=0;opacity=50;" parent="saO0hsbp9Sgod1jM02oN-1" source="yYwOIRpesgABRN1WHnr8-6" target="yYwOIRpesgABRN1WHnr8-14" edge="1">
          <mxGeometry relative="1" as="geometry"/>
        </mxCell>
        <mxCell id="kDaUi3rHdYQlr3wqwh5D-16" style="edgeStyle=orthogonalEdgeStyle;rounded=0;orthogonalLoop=1;jettySize=auto;html=1;exitX=1;exitY=0.5;exitDx=0;exitDy=0;entryX=0;entryY=0.5;entryDx=0;entryDy=0;opacity=50;" parent="saO0hsbp9Sgod1jM02oN-1" source="yYwOIRpesgABRN1WHnr8-6" target="yYwOIRpesgABRN1WHnr8-12" edge="1">
          <mxGeometry relative="1" as="geometry"/>
        </mxCell>
        <mxCell id="kDaUi3rHdYQlr3wqwh5D-17" style="edgeStyle=orthogonalEdgeStyle;rounded=0;orthogonalLoop=1;jettySize=auto;html=1;exitX=1;exitY=0.5;exitDx=0;exitDy=0;entryX=0;entryY=0.5;entryDx=0;entryDy=0;opacity=50;" parent="saO0hsbp9Sgod1jM02oN-1" source="yYwOIRpesgABRN1WHnr8-6" target="yYwOIRpesgABRN1WHnr8-17" edge="1">
          <mxGeometry relative="1" as="geometry"/>
        </mxCell>
        <mxCell id="kDaUi3rHdYQlr3wqwh5D-18" style="edgeStyle=orthogonalEdgeStyle;rounded=0;orthogonalLoop=1;jettySize=auto;html=1;exitX=1;exitY=0.5;exitDx=0;exitDy=0;entryX=0;entryY=0.5;entryDx=0;entryDy=0;opacity=50;" parent="saO0hsbp9Sgod1jM02oN-1" source="yYwOIRpesgABRN1WHnr8-6" target="yYwOIRpesgABRN1WHnr8-19" edge="1">
          <mxGeometry relative="1" as="geometry"/>
        </mxCell>
        <mxCell id="yYwOIRpesgABRN1WHnr8-6" value="숙어" style="rounded=1;whiteSpace=wrap;html=1;fillColor=#f5f5f5;strokeColor=#666666;fontColor=#333333;" parent="saO0hsbp9Sgod1jM02oN-1" vertex="1">
          <mxGeometry x="240" y="640" width="120" height="60" as="geometry"/>
        </mxCell>
        <mxCell id="kDaUi3rHdYQlr3wqwh5D-26" style="edgeStyle=orthogonalEdgeStyle;rounded=0;orthogonalLoop=1;jettySize=auto;html=1;exitX=1;exitY=0.5;exitDx=0;exitDy=0;entryX=0;entryY=0.5;entryDx=0;entryDy=0;opacity=50;" parent="saO0hsbp9Sgod1jM02oN-1" source="yYwOIRpesgABRN1WHnr8-7" target="kDaUi3rHdYQlr3wqwh5D-23" edge="1">
          <mxGeometry relative="1" as="geometry"/>
        </mxCell>
        <mxCell id="kDaUi3rHdYQlr3wqwh5D-27" style="edgeStyle=orthogonalEdgeStyle;rounded=0;orthogonalLoop=1;jettySize=auto;html=1;exitX=1;exitY=0.5;exitDx=0;exitDy=0;entryX=0;entryY=0.5;entryDx=0;entryDy=0;opacity=50;" parent="saO0hsbp9Sgod1jM02oN-1" source="yYwOIRpesgABRN1WHnr8-7" target="kDaUi3rHdYQlr3wqwh5D-25" edge="1">
          <mxGeometry relative="1" as="geometry"/>
        </mxCell>
        <mxCell id="kDaUi3rHdYQlr3wqwh5D-28" style="edgeStyle=orthogonalEdgeStyle;rounded=0;orthogonalLoop=1;jettySize=auto;html=1;exitX=1;exitY=0.5;exitDx=0;exitDy=0;entryX=0;entryY=0.5;entryDx=0;entryDy=0;opacity=50;" parent="saO0hsbp9Sgod1jM02oN-1" source="yYwOIRpesgABRN1WHnr8-7" target="kDaUi3rHdYQlr3wqwh5D-24" edge="1">
          <mxGeometry relative="1" as="geometry"/>
        </mxCell>
        <mxCell id="yYwOIRpesgABRN1WHnr8-7" value="방언" style="rounded=1;whiteSpace=wrap;html=1;fillColor=#f5f5f5;strokeColor=#666666;fontColor=#333333;" parent="saO0hsbp9Sgod1jM02oN-1" vertex="1">
          <mxGeometry x="240" y="820" width="120" height="60" as="geometry"/>
        </mxCell>
        <mxCell id="yYwOIRpesgABRN1WHnr8-8" value="자유게시판" style="rounded=1;whiteSpace=wrap;html=1;fillColor=#f5f5f5;strokeColor=#666666;fontColor=#333333;" parent="saO0hsbp9Sgod1jM02oN-1" vertex="1">
          <mxGeometry x="240" y="910" width="120" height="60" as="geometry"/>
        </mxCell>
        <mxCell id="yYwOIRpesgABRN1WHnr8-12" value="레벨3" style="rounded=1;whiteSpace=wrap;html=1;fillColor=#ffe6cc;strokeColor=#d79b00;flipH=1;" parent="saO0hsbp9Sgod1jM02oN-1" vertex="1">
          <mxGeometry x="513" y="530" width="80" height="40" as="geometry"/>
        </mxCell>
        <mxCell id="yYwOIRpesgABRN1WHnr8-14" value="레벨4" style="rounded=1;whiteSpace=wrap;html=1;fillColor=#ffe6cc;strokeColor=#d79b00;flipH=1;" parent="saO0hsbp9Sgod1jM02oN-1" vertex="1">
          <mxGeometry x="513" y="590" width="80" height="40" as="geometry"/>
        </mxCell>
        <mxCell id="yYwOIRpesgABRN1WHnr8-16" value="레벨5" style="rounded=1;whiteSpace=wrap;html=1;fillColor=#ffe6cc;strokeColor=#d79b00;flipH=1;" parent="saO0hsbp9Sgod1jM02oN-1" vertex="1">
          <mxGeometry x="513" y="650" width="80" height="40" as="geometry"/>
        </mxCell>
        <mxCell id="yYwOIRpesgABRN1WHnr8-17" value="레벨2" style="rounded=1;whiteSpace=wrap;html=1;fillColor=#ffe6cc;strokeColor=#d79b00;flipH=1;" parent="saO0hsbp9Sgod1jM02oN-1" vertex="1">
          <mxGeometry x="513" y="470" width="80" height="40" as="geometry"/>
        </mxCell>
        <mxCell id="yYwOIRpesgABRN1WHnr8-19" value="레벨1" style="rounded=1;whiteSpace=wrap;html=1;fillColor=#ffe6cc;strokeColor=#d79b00;" parent="saO0hsbp9Sgod1jM02oN-1" vertex="1">
          <mxGeometry x="513" y="410" width="80" height="40" as="geometry"/>
        </mxCell>
        <mxCell id="yYwOIRpesgABRN1WHnr8-30" style="edgeStyle=orthogonalEdgeStyle;rounded=0;orthogonalLoop=1;jettySize=auto;html=1;exitX=1;exitY=0.5;exitDx=0;exitDy=0;entryX=0;entryY=0.5;entryDx=0;entryDy=0;" parent="saO0hsbp9Sgod1jM02oN-1" source="yYwOIRpesgABRN1WHnr8-28" target="yYwOIRpesgABRN1WHnr8-6" edge="1">
          <mxGeometry relative="1" as="geometry"/>
        </mxCell>
        <mxCell id="yYwOIRpesgABRN1WHnr8-31" style="edgeStyle=orthogonalEdgeStyle;rounded=0;orthogonalLoop=1;jettySize=auto;html=1;exitX=1;exitY=0.5;exitDx=0;exitDy=0;entryX=0;entryY=0.5;entryDx=0;entryDy=0;" parent="saO0hsbp9Sgod1jM02oN-1" source="yYwOIRpesgABRN1WHnr8-28" target="yYwOIRpesgABRN1WHnr8-5" edge="1">
          <mxGeometry relative="1" as="geometry"/>
        </mxCell>
        <mxCell id="yYwOIRpesgABRN1WHnr8-32" style="edgeStyle=orthogonalEdgeStyle;rounded=0;orthogonalLoop=1;jettySize=auto;html=1;exitX=1;exitY=0.5;exitDx=0;exitDy=0;entryX=0;entryY=0.5;entryDx=0;entryDy=0;" parent="saO0hsbp9Sgod1jM02oN-1" source="yYwOIRpesgABRN1WHnr8-28" target="yYwOIRpesgABRN1WHnr8-7" edge="1">
          <mxGeometry relative="1" as="geometry"/>
        </mxCell>
        <mxCell id="yYwOIRpesgABRN1WHnr8-33" style="edgeStyle=orthogonalEdgeStyle;rounded=0;orthogonalLoop=1;jettySize=auto;html=1;exitX=1;exitY=0.5;exitDx=0;exitDy=0;entryX=0;entryY=0.5;entryDx=0;entryDy=0;" parent="saO0hsbp9Sgod1jM02oN-1" source="yYwOIRpesgABRN1WHnr8-28" target="yYwOIRpesgABRN1WHnr8-8" edge="1">
          <mxGeometry relative="1" as="geometry"/>
        </mxCell>
        <mxCell id="yYwOIRpesgABRN1WHnr8-28" value="메뉴" style="rounded=1;whiteSpace=wrap;html=1;" parent="saO0hsbp9Sgod1jM02oN-1" vertex="1">
          <mxGeometry x="40" y="640" width="120" height="60" as="geometry"/>
        </mxCell>
        <mxCell id="yYwOIRpesgABRN1WHnr8-38" style="edgeStyle=orthogonalEdgeStyle;rounded=0;orthogonalLoop=1;jettySize=auto;html=1;exitX=1;exitY=0.5;exitDx=0;exitDy=0;entryX=0;entryY=0.5;entryDx=0;entryDy=0;" parent="saO0hsbp9Sgod1jM02oN-1" source="yYwOIRpesgABRN1WHnr8-34" target="yYwOIRpesgABRN1WHnr8-36" edge="1">
          <mxGeometry relative="1" as="geometry"/>
        </mxCell>
        <mxCell id="yYwOIRpesgABRN1WHnr8-39" style="edgeStyle=orthogonalEdgeStyle;rounded=0;orthogonalLoop=1;jettySize=auto;html=1;exitX=1;exitY=0.5;exitDx=0;exitDy=0;entryX=0;entryY=0.5;entryDx=0;entryDy=0;" parent="saO0hsbp9Sgod1jM02oN-1" source="yYwOIRpesgABRN1WHnr8-34" target="yYwOIRpesgABRN1WHnr8-37" edge="1">
          <mxGeometry relative="1" as="geometry"/>
        </mxCell>
        <mxCell id="yYwOIRpesgABRN1WHnr8-34" value="상단 메뉴" style="rounded=1;whiteSpace=wrap;html=1;" parent="saO0hsbp9Sgod1jM02oN-1" vertex="1">
          <mxGeometry x="40" y="380" width="120" height="60" as="geometry"/>
        </mxCell>
        <mxCell id="yYwOIRpesgABRN1WHnr8-36" value="출석체크" style="rounded=1;whiteSpace=wrap;html=1;fillColor=#f5f5f5;strokeColor=#666666;fontColor=#333333;" parent="saO0hsbp9Sgod1jM02oN-1" vertex="1">
          <mxGeometry x="240" y="380" width="120" height="60" as="geometry"/>
        </mxCell>
        <mxCell id="yYwOIRpesgABRN1WHnr8-37" value="로그인" style="rounded=1;whiteSpace=wrap;html=1;fillColor=#f5f5f5;strokeColor=#666666;fontColor=#333333;" parent="saO0hsbp9Sgod1jM02oN-1" vertex="1">
          <mxGeometry x="240" y="290" width="120" height="60" as="geometry"/>
        </mxCell>
        <mxCell id="kDaUi3rHdYQlr3wqwh5D-0" style="edgeStyle=orthogonalEdgeStyle;rounded=0;orthogonalLoop=1;jettySize=auto;html=1;exitX=1;exitY=0.5;exitDx=0;exitDy=0;" parent="saO0hsbp9Sgod1jM02oN-1" target="kDaUi3rHdYQlr3wqwh5D-2" edge="1">
          <mxGeometry relative="1" as="geometry">
            <mxPoint x="360" y="320" as="sourcePoint"/>
            <Array as="points">
              <mxPoint x="413" y="320"/>
            </Array>
          </mxGeometry>
        </mxCell>
        <mxCell id="kDaUi3rHdYQlr3wqwh5D-1" value="회원가입" style="rounded=1;whiteSpace=wrap;html=1;fillColor=#ffe6cc;strokeColor=#d79b00;" parent="saO0hsbp9Sgod1jM02oN-1" vertex="1">
          <mxGeometry x="433" y="200" width="120" height="60" as="geometry"/>
        </mxCell>
        <mxCell id="kDaUi3rHdYQlr3wqwh5D-2" value="ID/PW 찾기" style="rounded=1;whiteSpace=wrap;html=1;fillColor=#ffe6cc;strokeColor=#d79b00;" parent="saO0hsbp9Sgod1jM02oN-1" vertex="1">
          <mxGeometry x="433" y="290" width="120" height="60" as="geometry"/>
        </mxCell>
        <mxCell id="kDaUi3rHdYQlr3wqwh5D-3" style="edgeStyle=orthogonalEdgeStyle;rounded=0;orthogonalLoop=1;jettySize=auto;html=1;" parent="saO0hsbp9Sgod1jM02oN-1" edge="1">
          <mxGeometry relative="1" as="geometry">
            <mxPoint x="400" y="320" as="sourcePoint"/>
            <mxPoint x="433" y="230" as="targetPoint"/>
            <Array as="points">
              <mxPoint x="433" y="229.5"/>
            </Array>
          </mxGeometry>
        </mxCell>
        <mxCell id="kDaUi3rHdYQlr3wqwh5D-23" value="지역1" style="rounded=1;whiteSpace=wrap;html=1;fillColor=#ffe6cc;strokeColor=#d79b00;" parent="saO0hsbp9Sgod1jM02oN-1" vertex="1">
          <mxGeometry x="433" y="830" width="80" height="40" as="geometry"/>
        </mxCell>
        <mxCell id="kDaUi3rHdYQlr3wqwh5D-24" value="지역3" style="rounded=1;whiteSpace=wrap;html=1;fillColor=#ffe6cc;strokeColor=#d79b00;" parent="saO0hsbp9Sgod1jM02oN-1" vertex="1">
          <mxGeometry x="433" y="950" width="80" height="40" as="geometry"/>
        </mxCell>
        <mxCell id="kDaUi3rHdYQlr3wqwh5D-25" value="지역2" style="rounded=1;whiteSpace=wrap;html=1;fillColor=#ffe6cc;strokeColor=#d79b00;" parent="saO0hsbp9Sgod1jM02oN-1" vertex="1">
          <mxGeometry x="433" y="890" width="80" height="40" as="geometry"/>
        </mxCell>
        <mxCell id="kDaUi3rHdYQlr3wqwh5D-29" value="레벨3" style="rounded=1;whiteSpace=wrap;html=1;fillColor=#ffe6cc;strokeColor=#d79b00;flipH=1;" parent="saO0hsbp9Sgod1jM02oN-1" vertex="1">
          <mxGeometry x="640" y="860" width="80" height="40" as="geometry"/>
        </mxCell>
        <mxCell id="kDaUi3rHdYQlr3wqwh5D-30" value="레벨4" style="rounded=1;whiteSpace=wrap;html=1;fillColor=#ffe6cc;strokeColor=#d79b00;flipH=1;" parent="saO0hsbp9Sgod1jM02oN-1" vertex="1">
          <mxGeometry x="640" y="920" width="80" height="40" as="geometry"/>
        </mxCell>
        <mxCell id="kDaUi3rHdYQlr3wqwh5D-31" value="레벨5" style="rounded=1;whiteSpace=wrap;html=1;fillColor=#ffe6cc;strokeColor=#d79b00;flipH=1;" parent="saO0hsbp9Sgod1jM02oN-1" vertex="1">
          <mxGeometry x="640" y="980" width="80" height="40" as="geometry"/>
        </mxCell>
        <mxCell id="kDaUi3rHdYQlr3wqwh5D-32" value="레벨2" style="rounded=1;whiteSpace=wrap;html=1;fillColor=#ffe6cc;strokeColor=#d79b00;flipH=1;" parent="saO0hsbp9Sgod1jM02oN-1" vertex="1">
          <mxGeometry x="640" y="800" width="80" height="40" as="geometry"/>
        </mxCell>
        <mxCell id="kDaUi3rHdYQlr3wqwh5D-33" value="레벨1" style="rounded=1;whiteSpace=wrap;html=1;fillColor=#ffe6cc;strokeColor=#d79b00;" parent="saO0hsbp9Sgod1jM02oN-1" vertex="1">
          <mxGeometry x="640" y="740" width="80" height="40" as="geometry"/>
        </mxCell>
      </root>
    </mxGraphModel>
  </diagram>
  <diagram id="lVplIbcjQBvnQ7Ah2q_f" name="login">
    <mxGraphModel dx="1408" dy="780" grid="1" gridSize="10" guides="1" tooltips="1" connect="1" arrows="1" fold="1" page="1" pageScale="1" pageWidth="827" pageHeight="1169" math="0" shadow="0">
      <root>
        <mxCell id="0"/>
        <mxCell id="1" parent="0"/>
        <mxCell id="2ewm_QbD0I_HU9R1dLlX-14" value="D" style="edgeStyle=orthogonalEdgeStyle;rounded=0;orthogonalLoop=1;jettySize=auto;html=1;exitX=1;exitY=0.5;exitDx=0;exitDy=0;entryX=0;entryY=0.5;entryDx=0;entryDy=0;" parent="1" source="2ewm_QbD0I_HU9R1dLlX-1" target="2ewm_QbD0I_HU9R1dLlX-2" edge="1">
          <mxGeometry relative="1" as="geometry"/>
        </mxCell>
        <mxCell id="2ewm_QbD0I_HU9R1dLlX-19" style="edgeStyle=orthogonalEdgeStyle;rounded=0;orthogonalLoop=1;jettySize=auto;html=1;exitX=0.5;exitY=1;exitDx=0;exitDy=0;entryX=0;entryY=0.5;entryDx=0;entryDy=0;" parent="1" source="2ewm_QbD0I_HU9R1dLlX-1" target="2ewm_QbD0I_HU9R1dLlX-18" edge="1">
          <mxGeometry relative="1" as="geometry">
            <Array as="points">
              <mxPoint x="100" y="150"/>
            </Array>
          </mxGeometry>
        </mxCell>
        <mxCell id="2ewm_QbD0I_HU9R1dLlX-1" value="메인페이지" style="rounded=1;whiteSpace=wrap;html=1;fillColor=#dae8fc;strokeColor=#6c8ebf;" parent="1" vertex="1">
          <mxGeometry x="40" y="210" width="120" height="60" as="geometry"/>
        </mxCell>
        <mxCell id="2ewm_QbD0I_HU9R1dLlX-7" style="edgeStyle=orthogonalEdgeStyle;rounded=0;orthogonalLoop=1;jettySize=auto;html=1;exitX=1;exitY=0.5;exitDx=0;exitDy=0;" parent="1" source="2ewm_QbD0I_HU9R1dLlX-2" target="2ewm_QbD0I_HU9R1dLlX-4" edge="1">
          <mxGeometry relative="1" as="geometry">
            <Array as="points">
              <mxPoint x="393" y="240"/>
            </Array>
          </mxGeometry>
        </mxCell>
        <mxCell id="2ewm_QbD0I_HU9R1dLlX-2" value="로그인" style="rounded=1;whiteSpace=wrap;html=1;fillColor=#f5f5f5;strokeColor=#666666;fontColor=#333333;" parent="1" vertex="1">
          <mxGeometry x="220" y="210" width="120" height="60" as="geometry"/>
        </mxCell>
        <mxCell id="2ewm_QbD0I_HU9R1dLlX-3" value="회원가입" style="rounded=1;whiteSpace=wrap;html=1;fillColor=#ffe6cc;strokeColor=#d79b00;" parent="1" vertex="1">
          <mxGeometry x="413" y="120" width="120" height="60" as="geometry"/>
        </mxCell>
        <mxCell id="2ewm_QbD0I_HU9R1dLlX-20" style="edgeStyle=orthogonalEdgeStyle;rounded=0;orthogonalLoop=1;jettySize=auto;html=1;exitX=1;exitY=0.5;exitDx=0;exitDy=0;entryX=0;entryY=0.5;entryDx=0;entryDy=0;" parent="1" source="2ewm_QbD0I_HU9R1dLlX-4" target="2ewm_QbD0I_HU9R1dLlX-15" edge="1">
          <mxGeometry relative="1" as="geometry"/>
        </mxCell>
        <mxCell id="2ewm_QbD0I_HU9R1dLlX-4" value="ID/PW 찾기" style="rounded=1;whiteSpace=wrap;html=1;fillColor=#ffe6cc;strokeColor=#d79b00;" parent="1" vertex="1">
          <mxGeometry x="413" y="210" width="120" height="60" as="geometry"/>
        </mxCell>
        <mxCell id="2ewm_QbD0I_HU9R1dLlX-11" style="edgeStyle=orthogonalEdgeStyle;rounded=0;orthogonalLoop=1;jettySize=auto;html=1;" parent="1" edge="1">
          <mxGeometry relative="1" as="geometry">
            <mxPoint x="380" y="240" as="sourcePoint"/>
            <mxPoint x="413" y="149.5" as="targetPoint"/>
            <Array as="points">
              <mxPoint x="413" y="149.5"/>
            </Array>
          </mxGeometry>
        </mxCell>
        <mxCell id="2ewm_QbD0I_HU9R1dLlX-15" value="회원DB" style="rounded=1;whiteSpace=wrap;html=1;fillColor=#d5e8d4;strokeColor=#82b366;" parent="1" vertex="1">
          <mxGeometry x="640" y="210" width="120" height="60" as="geometry"/>
        </mxCell>
        <mxCell id="2ewm_QbD0I_HU9R1dLlX-18" value="출석체크" style="rounded=1;whiteSpace=wrap;html=1;fillColor=#f5f5f5;strokeColor=#666666;fontColor=#333333;" parent="1" vertex="1">
          <mxGeometry x="220" y="120" width="120" height="60" as="geometry"/>
        </mxCell>
        <mxCell id="2ewm_QbD0I_HU9R1dLlX-23" style="edgeStyle=orthogonalEdgeStyle;rounded=0;orthogonalLoop=1;jettySize=auto;html=1;exitX=1;exitY=0.5;exitDx=0;exitDy=0;entryX=0;entryY=0.5;entryDx=0;entryDy=0;" parent="1" target="2ewm_QbD0I_HU9R1dLlX-15" edge="1">
          <mxGeometry relative="1" as="geometry">
            <mxPoint x="533" y="149.5" as="sourcePoint"/>
            <mxPoint x="640" y="149.5" as="targetPoint"/>
          </mxGeometry>
        </mxCell>
      </root>
    </mxGraphModel>
  </diagram>
  <diagram id="y825J3F3Ex4oAVGoUSzA" name="check">
    <mxGraphModel dx="1408" dy="780" grid="1" gridSize="10" guides="1" tooltips="1" connect="1" arrows="1" fold="1" page="1" pageScale="1" pageWidth="827" pageHeight="1169" math="0" shadow="0">
      <root>
        <mxCell id="LBD63hGZ00GXegsHQbpv-0"/>
        <mxCell id="LBD63hGZ00GXegsHQbpv-1" parent="LBD63hGZ00GXegsHQbpv-0"/>
        <mxCell id="WfV7SwnmVnagkdXLWLyY-12" style="edgeStyle=orthogonalEdgeStyle;rounded=0;orthogonalLoop=1;jettySize=auto;html=1;exitX=1;exitY=0.5;exitDx=0;exitDy=0;entryX=0;entryY=0.5;entryDx=0;entryDy=0;" edge="1" parent="LBD63hGZ00GXegsHQbpv-1" source="WfV7SwnmVnagkdXLWLyY-2" target="WfV7SwnmVnagkdXLWLyY-10">
          <mxGeometry relative="1" as="geometry"/>
        </mxCell>
        <mxCell id="WfV7SwnmVnagkdXLWLyY-2" value="메인페이지" style="rounded=1;whiteSpace=wrap;html=1;fillColor=#dae8fc;strokeColor=#6c8ebf;" vertex="1" parent="LBD63hGZ00GXegsHQbpv-1">
          <mxGeometry x="40" y="210" width="120" height="60" as="geometry"/>
        </mxCell>
        <mxCell id="WfV7SwnmVnagkdXLWLyY-3" style="edgeStyle=orthogonalEdgeStyle;rounded=0;orthogonalLoop=1;jettySize=auto;html=1;exitX=1;exitY=0.5;exitDx=0;exitDy=0;" edge="1" parent="LBD63hGZ00GXegsHQbpv-1">
          <mxGeometry relative="1" as="geometry">
            <Array as="points">
              <mxPoint x="393" y="240"/>
            </Array>
            <mxPoint x="340" y="240" as="sourcePoint"/>
            <mxPoint x="413" y="240" as="targetPoint"/>
          </mxGeometry>
        </mxCell>
        <mxCell id="WfV7SwnmVnagkdXLWLyY-9" value="출석체크DB" style="rounded=1;whiteSpace=wrap;html=1;fillColor=#d5e8d4;strokeColor=#82b366;" vertex="1" parent="LBD63hGZ00GXegsHQbpv-1">
          <mxGeometry x="413" y="210" width="120" height="60" as="geometry"/>
        </mxCell>
        <mxCell id="WfV7SwnmVnagkdXLWLyY-10" value="출석체크" style="rounded=1;whiteSpace=wrap;html=1;fillColor=#f5f5f5;strokeColor=#666666;fontColor=#333333;" vertex="1" parent="LBD63hGZ00GXegsHQbpv-1">
          <mxGeometry x="220" y="210" width="120" height="60" as="geometry"/>
        </mxCell>
      </root>
    </mxGraphModel>
  </diagram>
  <diagram id="XLS4lDm_cPhX68DcIx3E" name="word">
    <mxGraphModel dx="1408" dy="780" grid="1" gridSize="10" guides="1" tooltips="1" connect="1" arrows="1" fold="1" page="1" pageScale="1" pageWidth="827" pageHeight="1169" math="0" shadow="0">
      <root>
        <mxCell id="qDiv3iQYYuCSXM4l3Hht-0"/>
        <mxCell id="qDiv3iQYYuCSXM4l3Hht-1" parent="qDiv3iQYYuCSXM4l3Hht-0"/>
        <mxCell id="49oVXMRkroblXhq9ekt6-0" style="edgeStyle=orthogonalEdgeStyle;rounded=0;orthogonalLoop=1;jettySize=auto;html=1;exitX=1;exitY=0.5;exitDx=0;exitDy=0;entryX=0;entryY=0.5;entryDx=0;entryDy=0;" parent="qDiv3iQYYuCSXM4l3Hht-1" source="49oVXMRkroblXhq9ekt6-2" target="49oVXMRkroblXhq9ekt6-3" edge="1">
          <mxGeometry relative="1" as="geometry"/>
        </mxCell>
        <mxCell id="49oVXMRkroblXhq9ekt6-1" style="edgeStyle=orthogonalEdgeStyle;rounded=0;orthogonalLoop=1;jettySize=auto;html=1;exitX=0.5;exitY=1;exitDx=0;exitDy=0;entryX=0;entryY=0.5;entryDx=0;entryDy=0;" parent="qDiv3iQYYuCSXM4l3Hht-1" source="49oVXMRkroblXhq9ekt6-2" target="49oVXMRkroblXhq9ekt6-5" edge="1">
          <mxGeometry relative="1" as="geometry">
            <Array as="points">
              <mxPoint x="100" y="150"/>
            </Array>
          </mxGeometry>
        </mxCell>
        <mxCell id="49oVXMRkroblXhq9ekt6-8" style="edgeStyle=orthogonalEdgeStyle;rounded=0;orthogonalLoop=1;jettySize=auto;html=1;exitX=0.5;exitY=1;exitDx=0;exitDy=0;entryX=0;entryY=0.5;entryDx=0;entryDy=0;" parent="qDiv3iQYYuCSXM4l3Hht-1" source="49oVXMRkroblXhq9ekt6-2" target="49oVXMRkroblXhq9ekt6-6" edge="1">
          <mxGeometry relative="1" as="geometry"/>
        </mxCell>
        <mxCell id="49oVXMRkroblXhq9ekt6-2" value="메인페이지" style="rounded=1;whiteSpace=wrap;html=1;fillColor=#dae8fc;strokeColor=#6c8ebf;" parent="qDiv3iQYYuCSXM4l3Hht-1" vertex="1">
          <mxGeometry x="40" y="210" width="120" height="60" as="geometry"/>
        </mxCell>
        <mxCell id="49oVXMRkroblXhq9ekt6-10" style="edgeStyle=orthogonalEdgeStyle;rounded=0;orthogonalLoop=1;jettySize=auto;html=1;exitX=1;exitY=0.5;exitDx=0;exitDy=0;entryX=0;entryY=0.5;entryDx=0;entryDy=0;" parent="qDiv3iQYYuCSXM4l3Hht-1" source="49oVXMRkroblXhq9ekt6-3" edge="1">
          <mxGeometry relative="1" as="geometry">
            <mxPoint x="413" y="240" as="targetPoint"/>
          </mxGeometry>
        </mxCell>
        <mxCell id="49oVXMRkroblXhq9ekt6-3" value="단어" style="rounded=1;whiteSpace=wrap;html=1;fillColor=#f5f5f5;strokeColor=#666666;fontColor=#333333;" parent="qDiv3iQYYuCSXM4l3Hht-1" vertex="1">
          <mxGeometry x="220" y="210" width="120" height="60" as="geometry"/>
        </mxCell>
        <mxCell id="49oVXMRkroblXhq9ekt6-5" value="숙어" style="rounded=1;whiteSpace=wrap;html=1;fillColor=#f5f5f5;strokeColor=#666666;fontColor=#333333;" parent="qDiv3iQYYuCSXM4l3Hht-1" vertex="1">
          <mxGeometry x="220" y="120" width="120" height="60" as="geometry"/>
        </mxCell>
        <mxCell id="49oVXMRkroblXhq9ekt6-6" value="방언" style="rounded=1;whiteSpace=wrap;html=1;fillColor=#f5f5f5;strokeColor=#666666;fontColor=#333333;" parent="qDiv3iQYYuCSXM4l3Hht-1" vertex="1">
          <mxGeometry x="220" y="300" width="120" height="60" as="geometry"/>
        </mxCell>
        <mxCell id="49oVXMRkroblXhq9ekt6-7" value="자유게시판" style="rounded=1;whiteSpace=wrap;html=1;fillColor=#f5f5f5;strokeColor=#666666;fontColor=#333333;" parent="qDiv3iQYYuCSXM4l3Hht-1" vertex="1">
          <mxGeometry x="220" y="390" width="120" height="60" as="geometry"/>
        </mxCell>
        <mxCell id="49oVXMRkroblXhq9ekt6-9" style="edgeStyle=orthogonalEdgeStyle;rounded=0;orthogonalLoop=1;jettySize=auto;html=1;entryX=0;entryY=0.5;entryDx=0;entryDy=0;exitX=0.5;exitY=1;exitDx=0;exitDy=0;" parent="qDiv3iQYYuCSXM4l3Hht-1" source="49oVXMRkroblXhq9ekt6-2" target="49oVXMRkroblXhq9ekt6-7" edge="1">
          <mxGeometry relative="1" as="geometry">
            <mxPoint x="110" y="380" as="sourcePoint"/>
            <mxPoint x="220" y="440" as="targetPoint"/>
            <Array as="points">
              <mxPoint x="100" y="420"/>
            </Array>
          </mxGeometry>
        </mxCell>
        <mxCell id="49oVXMRkroblXhq9ekt6-11" style="edgeStyle=orthogonalEdgeStyle;rounded=0;orthogonalLoop=1;jettySize=auto;html=1;exitX=1;exitY=0.5;exitDx=0;exitDy=0;entryX=0;entryY=0.5;entryDx=0;entryDy=0;" parent="qDiv3iQYYuCSXM4l3Hht-1" target="49oVXMRkroblXhq9ekt6-12" edge="1">
          <mxGeometry relative="1" as="geometry">
            <mxPoint x="533" y="240" as="sourcePoint"/>
          </mxGeometry>
        </mxCell>
        <mxCell id="49oVXMRkroblXhq9ekt6-12" value="게시판DB" style="rounded=1;whiteSpace=wrap;html=1;fillColor=#d5e8d4;strokeColor=#82b366;" parent="qDiv3iQYYuCSXM4l3Hht-1" vertex="1">
          <mxGeometry x="606" y="210" width="120" height="60" as="geometry"/>
        </mxCell>
        <mxCell id="49oVXMRkroblXhq9ekt6-13" value="3" style="rounded=1;whiteSpace=wrap;html=1;fillColor=#ffe6cc;strokeColor=#d79b00;" parent="qDiv3iQYYuCSXM4l3Hht-1" vertex="1">
          <mxGeometry x="413" y="210" width="120" height="60" as="geometry"/>
        </mxCell>
        <mxCell id="49oVXMRkroblXhq9ekt6-37" style="edgeStyle=orthogonalEdgeStyle;rounded=0;orthogonalLoop=1;jettySize=auto;html=1;exitX=1;exitY=0.5;exitDx=0;exitDy=0;entryX=0;entryY=0.5;entryDx=0;entryDy=0;" parent="qDiv3iQYYuCSXM4l3Hht-1" source="49oVXMRkroblXhq9ekt6-14" target="49oVXMRkroblXhq9ekt6-12" edge="1">
          <mxGeometry relative="1" as="geometry"/>
        </mxCell>
        <mxCell id="49oVXMRkroblXhq9ekt6-14" value="4" style="rounded=1;whiteSpace=wrap;html=1;fillColor=#ffe6cc;strokeColor=#d79b00;" parent="qDiv3iQYYuCSXM4l3Hht-1" vertex="1">
          <mxGeometry x="413" y="300" width="120" height="60" as="geometry"/>
        </mxCell>
        <mxCell id="49oVXMRkroblXhq9ekt6-38" style="edgeStyle=orthogonalEdgeStyle;rounded=0;orthogonalLoop=1;jettySize=auto;html=1;exitX=1;exitY=0.5;exitDx=0;exitDy=0;entryX=0;entryY=0.5;entryDx=0;entryDy=0;" parent="qDiv3iQYYuCSXM4l3Hht-1" source="49oVXMRkroblXhq9ekt6-15" target="49oVXMRkroblXhq9ekt6-12" edge="1">
          <mxGeometry relative="1" as="geometry"/>
        </mxCell>
        <mxCell id="49oVXMRkroblXhq9ekt6-15" value="5" style="rounded=1;whiteSpace=wrap;html=1;fillColor=#ffe6cc;strokeColor=#d79b00;" parent="qDiv3iQYYuCSXM4l3Hht-1" vertex="1">
          <mxGeometry x="413" y="390" width="120" height="60" as="geometry"/>
        </mxCell>
        <mxCell id="49oVXMRkroblXhq9ekt6-16" value="2" style="rounded=1;whiteSpace=wrap;html=1;fillColor=#ffe6cc;strokeColor=#d79b00;" parent="qDiv3iQYYuCSXM4l3Hht-1" vertex="1">
          <mxGeometry x="413" y="120" width="120" height="60" as="geometry"/>
        </mxCell>
        <mxCell id="49oVXMRkroblXhq9ekt6-34" style="edgeStyle=orthogonalEdgeStyle;rounded=0;orthogonalLoop=1;jettySize=auto;html=1;exitX=1;exitY=0.5;exitDx=0;exitDy=0;entryX=0;entryY=0.5;entryDx=0;entryDy=0;" parent="qDiv3iQYYuCSXM4l3Hht-1" source="49oVXMRkroblXhq9ekt6-17" target="49oVXMRkroblXhq9ekt6-12" edge="1">
          <mxGeometry relative="1" as="geometry">
            <mxPoint x="570" y="240" as="targetPoint"/>
          </mxGeometry>
        </mxCell>
        <mxCell id="49oVXMRkroblXhq9ekt6-17" value="1" style="rounded=1;whiteSpace=wrap;html=1;fillColor=#ffe6cc;strokeColor=#d79b00;" parent="qDiv3iQYYuCSXM4l3Hht-1" vertex="1">
          <mxGeometry x="413" y="30" width="120" height="60" as="geometry"/>
        </mxCell>
        <mxCell id="49oVXMRkroblXhq9ekt6-18" style="edgeStyle=orthogonalEdgeStyle;rounded=0;orthogonalLoop=1;jettySize=auto;html=1;entryX=0;entryY=0.5;entryDx=0;entryDy=0;" parent="qDiv3iQYYuCSXM4l3Hht-1" edge="1">
          <mxGeometry relative="1" as="geometry">
            <Array as="points">
              <mxPoint x="380" y="60"/>
            </Array>
            <mxPoint x="380" y="240" as="sourcePoint"/>
            <mxPoint x="413" y="60" as="targetPoint"/>
          </mxGeometry>
        </mxCell>
        <mxCell id="49oVXMRkroblXhq9ekt6-19" style="edgeStyle=orthogonalEdgeStyle;rounded=0;orthogonalLoop=1;jettySize=auto;html=1;entryX=0;entryY=0.5;entryDx=0;entryDy=0;" parent="qDiv3iQYYuCSXM4l3Hht-1" edge="1">
          <mxGeometry relative="1" as="geometry">
            <Array as="points">
              <mxPoint x="380" y="150"/>
            </Array>
            <mxPoint x="380" y="240" as="sourcePoint"/>
            <mxPoint x="413" y="150" as="targetPoint"/>
          </mxGeometry>
        </mxCell>
        <mxCell id="49oVXMRkroblXhq9ekt6-20" style="edgeStyle=orthogonalEdgeStyle;rounded=0;orthogonalLoop=1;jettySize=auto;html=1;entryX=0;entryY=0.5;entryDx=0;entryDy=0;" parent="qDiv3iQYYuCSXM4l3Hht-1" edge="1">
          <mxGeometry relative="1" as="geometry">
            <mxPoint x="380" y="240" as="sourcePoint"/>
            <mxPoint x="413" y="329.5" as="targetPoint"/>
            <Array as="points">
              <mxPoint x="380" y="330"/>
              <mxPoint x="380" y="330"/>
            </Array>
          </mxGeometry>
        </mxCell>
        <mxCell id="49oVXMRkroblXhq9ekt6-22" style="edgeStyle=orthogonalEdgeStyle;rounded=0;orthogonalLoop=1;jettySize=auto;html=1;entryX=0;entryY=0.5;entryDx=0;entryDy=0;" parent="qDiv3iQYYuCSXM4l3Hht-1" edge="1">
          <mxGeometry relative="1" as="geometry">
            <mxPoint x="380" y="240" as="sourcePoint"/>
            <mxPoint x="413" y="420" as="targetPoint"/>
            <Array as="points">
              <mxPoint x="380" y="420"/>
              <mxPoint x="380" y="420"/>
            </Array>
          </mxGeometry>
        </mxCell>
        <mxCell id="49oVXMRkroblXhq9ekt6-36" style="edgeStyle=orthogonalEdgeStyle;rounded=0;orthogonalLoop=1;jettySize=auto;html=1;exitX=1;exitY=0.5;exitDx=0;exitDy=0;entryX=0;entryY=0.5;entryDx=0;entryDy=0;" parent="qDiv3iQYYuCSXM4l3Hht-1" target="49oVXMRkroblXhq9ekt6-12" edge="1">
          <mxGeometry relative="1" as="geometry">
            <mxPoint x="570" y="330" as="targetPoint"/>
            <mxPoint x="533" y="150" as="sourcePoint"/>
          </mxGeometry>
        </mxCell>
      </root>
    </mxGraphModel>
  </diagram>
</mxfile>
